<?xml version="1.0" encoding="utf-8"?>
<!-- Generator: Adobe Illustrator 23.0.1, SVG Export Plug-In . SVG Version: 6.00 Build 0)  -->
<svg version="1.1" id="linkedin" xmlns="http://www.w3.org/2000/svg" xmlns:xlink="http://www.w3.org/1999/xlink" x="0px" y="0px"
	 viewBox="0 0 100 100" style="enable-background:new 0 0 100 100;" xml:space="preserve">
<style type="text/css">
	.st0{fill:#140352;}
	.st1{fill:#F7F7F7;}
</style>
<circle class="st0" cx="50" cy="50" r="48"/>
<path class="st1" d="M66.3,25.5H33.7c-4.5,0-8.2,3.7-8.2,8.2v32.5c0,4.5,3.7,8.2,8.2,8.2h32.5c4.5,0,8.2-3.7,8.2-8.2V33.7
	C74.5,29.2,70.8,25.5,66.3,25.5z M43.9,65.3h-6.1V43.9h6.1V65.3z M40.8,40.8c-1.7,0-3.1-1.4-3.1-3.1s1.4-3.1,3.1-3.1
	s3.1,1.4,3.1,3.1S42.5,40.8,40.8,40.8z M65.3,65.3h-6.1V53.1c0-1.7-1.4-3.1-3.1-3.1s-3.1,1.4-3.1,3.1v12.3h-6.1V43.9h6.1v3.8
	c1.3-1.7,3.2-3.8,5.4-3.8c3.8,0,6.9,3.4,6.9,7.7L65.3,65.3L65.3,65.3z"/>
</svg>
